<?xml version="1.0" standalone="no"?>
<!DOCTYPE svg PUBLIC "-//W3C//DTD SVG 20010904//EN"
 "http://www.w3.org/TR/2001/REC-SVG-20010904/DTD/svg10.dtd">
<svg version="1.0" xmlns="http://www.w3.org/2000/svg"
 width="800.000000pt" height="800.000000pt" viewBox="0 0 800.000000 800.000000"
 preserveAspectRatio="xMidYMid meet">

<g transform="translate(0.000000,800.000000) scale(0.100000,-0.100000)"
fill="#000000" stroke="none">
<path d="M1703 5751 c-360 -98 -686 -387 -885 -783 -190 -381 -193 -756 -10
-1123 164 -328 468 -614 857 -805 216 -106 351 -144 580 -161 116 -8 315 -5
371 6 l21 5 -19 -56 c-37 -109 12 -214 127 -272 90 -45 235 -53 336 -18 43 15
44 15 125 -24 62 -31 93 -40 132 -40 28 0 53 -4 56 -9 9 -14 130 -34 134 -22
2 5 9 8 17 5 7 -3 30 -1 50 5 32 9 41 7 67 -12 21 -15 51 -24 101 -29 40 -4
100 -10 134 -14 37 -4 75 -2 93 4 23 9 46 7 96 -5 77 -19 150 -8 209 33 35 24
38 24 81 9 25 -8 59 -15 78 -15 110 0 268 61 327 127 l34 38 88 -3 c79 -3 94
-7 150 -39 279 -158 467 -216 702 -216 390 1 747 166 955 442 57 74 135 221
175 326 38 101 91 312 110 444 37 252 35 676 -4 905 -56 326 -161 549 -340
726 -141 141 -322 246 -563 329 -120 41 -337 93 -468 112 -41 6 -102 15 -135
20 -106 17 -441 23 -575 10 -402 -39 -787 -173 -1105 -386 -178 -119 -286
-156 -460 -156 -201 0 -312 42 -527 199 -502 367 -864 511 -1115 443z m344
-230 c66 -41 113 -161 113 -292 0 -103 -18 -158 -112 -337 -87 -167 -130 -281
-149 -394 -16 -96 3 -189 77 -387 92 -246 108 -314 108 -471 0 -80 -5 -153
-13 -180 -16 -56 -56 -110 -81 -110 -10 0 -49 20 -86 45 -66 45 -69 46 -138
43 -69 -3 -70 -3 -92 30 -54 78 -68 137 -72 298 -4 143 -2 159 32 320 65 304
69 425 15 483 -25 26 -36 24 -63 -13 -20 -26 -21 -39 -18 -217 3 -190 -3 -229
-33 -229 -8 0 -22 11 -30 24 -13 19 -15 56 -13 224 3 197 3 202 -20 224 -28
28 -51 17 -69 -33 -18 -53 -15 -109 18 -319 46 -294 43 -475 -8 -495 -24 -9
-51 22 -93 105 -21 42 -58 100 -83 130 -74 92 -107 176 -107 276 0 44 6 61 45
119 58 88 69 124 62 201 -6 74 -46 168 -100 232 -31 37 -37 51 -37 92 0 95 61
238 119 279 42 30 77 26 145 -15 112 -70 193 -56 293 49 32 34 81 94 108 132
138 197 198 237 282 186z m2757 -33 c-33 -65 -63 -88 -117 -88 -63 0 -84 -12
-108 -63 -11 -23 -17 -33 -14 -22 4 11 13 47 21 80 20 80 48 105 117 105 33 0
63 7 82 19 36 22 42 13 19 -31z m-262 -174 c18 -30 18 -32 -3 -58 -36 -46
-109 -25 -109 32 0 65 79 83 112 26z m-2056 -31 c48 -38 61 -40 111 -13 40 21
59 17 91 -25 11 -13 21 -22 24 -20 2 2 4 -4 5 -13 1 -9 11 -51 23 -92 38 -133
13 -313 -70 -500 -106 -240 -113 -262 -118 -345 -5 -95 12 -191 68 -369 84
-270 95 -431 38 -583 -22 -59 -67 -103 -106 -103 -15 0 -52 13 -82 29 l-55 28
-53 -48 c-58 -53 -84 -61 -124 -42 -56 27 -88 128 -88 278 0 173 14 220 141
471 107 212 112 224 117 296 6 92 -5 157 -66 403 -43 177 -46 199 -46 320 0
206 32 331 93 361 29 15 45 10 97 -33z m3031 -3 c41 -25 61 -56 71 -112 15
-76 -3 -174 -47 -263 -37 -73 -72 -123 -225 -318 -133 -170 -137 -246 -26
-467 78 -156 93 -204 94 -310 1 -87 -1 -99 -28 -147 -67 -122 -149 -173 -277
-173 -80 0 -104 -12 -179 -84 -86 -83 -107 -96 -155 -96 -84 0 -126 92 -105
227 14 87 76 218 217 456 183 311 189 350 78 572 -65 130 -65 132 -65 216 0
149 42 281 107 340 54 48 64 52 152 59 90 8 113 16 241 85 74 40 102 43 147
15z m-1948 -260 c78 -59 90 -59 185 -11 44 22 89 41 98 41 28 0 38 -33 38
-122 0 -104 -20 -179 -98 -363 -87 -207 -117 -353 -101 -506 10 -106 29 -143
114 -229 85 -86 105 -126 105 -208 0 -69 -13 -114 -47 -160 -34 -46 -67 -64
-112 -64 -78 1 -122 21 -189 85 -100 96 -112 127 -186 467 -50 232 -89 315
-131 280 -25 -21 -15 -109 35 -305 54 -211 63 -336 30 -413 -38 -89 -96 -111
-206 -77 -77 23 -110 19 -163 -19 -66 -48 -84 -51 -117 -22 -26 22 -29 31 -32
105 -5 109 18 184 109 341 91 159 108 202 115 303 8 101 -7 159 -73 291 -78
155 -94 208 -95 311 -1 106 13 158 55 202 37 39 75 48 142 33 105 -23 190 -99
301 -267 30 -46 59 -83 64 -83 25 0 31 42 21 158 -12 139 -4 212 29 247 32 34
47 32 109 -15z m1016 -10 c42 -16 67 -86 66 -184 -2 -155 -53 -291 -185 -489
-83 -125 -109 -188 -104 -250 5 -61 53 -166 127 -279 100 -154 113 -205 82
-331 -25 -104 -89 -169 -167 -169 -48 0 -86 32 -156 130 -33 48 -78 107 -100
131 -61 70 -104 246 -96 390 l4 72 61 55 c100 88 106 150 33 340 -105 274
-113 298 -114 364 -1 79 19 118 83 160 65 44 98 47 176 15 l66 -26 57 27 c116
56 127 59 167 44z m1724 -32 c25 -12 75 -51 110 -87 125 -127 208 -355 218
-596 5 -131 -1 -187 -44 -405 -13 -67 -17 -152 -18 -400 -1 -263 -4 -323 -18
-366 -44 -135 -132 -125 -291 32 -71 70 -118 154 -136 239 -14 66 -3 111 42
179 84 124 90 147 67 229 -8 31 -50 87 -64 87 -3 0 -11 -10 -20 -23 -9 -15
-19 -69 -25 -148 -17 -205 -42 -251 -145 -264 -82 -10 -141 13 -212 82 -54 53
-99 79 -206 118 -72 26 -101 70 -106 162 -6 134 29 190 178 287 107 69 161
125 198 203 21 46 26 74 33 225 5 103 15 194 25 225 19 62 68 136 118 176 80
65 213 85 296 45z m-5454 -530 c51 -45 70 -86 60 -130 -3 -18 -9 -55 -12 -83
-6 -70 20 -106 127 -169 120 -72 153 -129 113 -196 -55 -94 -193 -57 -193 51
0 31 7 47 29 70 16 16 39 29 50 29 39 0 30 19 -21 44 -29 13 -88 39 -130 56
-49 20 -87 43 -104 63 -26 31 -26 32 -19 142 6 105 5 112 -19 160 -14 28 -26
51 -26 53 0 9 110 -60 145 -90z m4082 -22 c25 -21 27 -30 26 -82 -1 -83 -17
-131 -61 -189 -51 -67 -107 -97 -179 -96 -51 0 -60 -3 -95 -35 -56 -50 -98
-68 -142 -60 -106 20 -100 229 9 312 40 30 79 36 162 22 41 -7 43 -6 88 45 60
67 113 107 141 107 13 0 35 -11 51 -24z m180 -1156 c43 -26 59 -61 68 -145 5
-48 18 -92 41 -139 39 -80 42 -118 14 -163 -24 -41 -59 -63 -107 -70 -30 -4
-42 -1 -57 16 -17 19 -18 26 -7 77 12 60 4 84 -27 84 -15 0 -15 -11 4 -112 6
-33 3 -41 -24 -67 -29 -30 -33 -31 -103 -27 -61 4 -77 8 -91 26 -26 32 -22 69
12 119 39 57 46 99 26 157 -19 55 -20 101 -5 141 14 37 66 92 104 109 44 20
115 17 152 -6z m-2097 -75 c43 -22 89 -73 98 -108 11 -42 -1 -93 -28 -122
l-22 -23 29 -43 c23 -34 28 -54 28 -100 0 -50 -4 -62 -30 -89 -95 -99 -355
-60 -355 53 0 17 16 59 36 94 l36 65 -12 96 c-15 117 -2 163 52 188 39 17 124
12 168 -11z m587 -84 c23 -11 49 -31 59 -46 22 -34 22 -103 0 -164 -10 -27
-16 -76 -16 -133 0 -102 -14 -138 -63 -168 -44 -27 -120 -27 -147 0 -27 27
-25 38 11 94 32 51 34 79 7 84 -17 3 -22 -7 -32 -69 -8 -47 -39 -86 -74 -94
-38 -8 -150 48 -163 82 -13 35 7 71 59 106 53 36 82 80 82 127 0 84 40 146
115 181 51 24 109 24 162 0z m968 -35 c173 -85 224 -328 92 -442 -66 -56 -210
-88 -265 -60 -63 33 -66 72 -14 167 l37 68 -67 63 c-65 61 -68 65 -68 110 0
50 32 100 74 119 40 17 151 4 211 -25z m1476 -28 c-10 -24 -60 -144 -111 -268
-51 -124 -100 -233 -108 -242 -10 -12 -30 -18 -59 -18 -36 0 -50 6 -74 29 -42
42 -39 85 8 110 21 11 46 6 114 -23 12 -5 24 15 57 97 23 57 42 106 42 110 0
11 -68 20 -103 13 -27 -5 -36 -13 -46 -42 -25 -70 -70 -91 -130 -60 -30 16
-54 58 -45 81 14 36 83 47 122 19 13 -9 24 -14 26 -13 1 2 17 39 35 81 l33 77
97 31 c53 16 107 37 121 45 38 22 41 19 21 -27z m-2154 -19 c24 -12 60 -41 81
-65 20 -24 40 -44 45 -44 5 0 7 21 4 47 -5 50 5 83 26 83 7 0 28 -11 47 -25
26 -19 46 -25 85 -25 87 0 98 -37 34 -115 -97 -116 -94 -192 9 -247 59 -32 25
-98 -56 -112 -81 -12 -132 35 -168 154 -29 96 -48 130 -65 113 -8 -8 -3 -38
17 -108 26 -89 27 -99 13 -123 -17 -32 -56 -40 -101 -21 -16 7 -52 11 -78 10
-42 -1 -52 2 -65 23 -15 22 -15 27 -1 54 8 16 28 40 43 53 77 65 83 119 23
199 -43 58 -50 92 -24 128 31 45 70 51 131 21z"/>
<path d="M6253 4536 c-73 -61 -110 -189 -79 -270 19 -49 73 -110 105 -119 30
-8 60 21 71 68 14 59 12 202 -4 269 -19 81 -43 94 -93 52z"/>
<path d="M4991 3142 c-13 -24 -17 -84 -7 -100 13 -22 56 -14 67 12 9 19 8 32
-7 62 -22 45 -39 53 -53 26z"/>
<path d="M2897 3103 c-12 -11 -7 -79 6 -97 12 -16 17 -17 38 -6 33 17 69 51
69 65 0 22 -37 45 -72 45 -19 0 -38 -3 -41 -7z"/>
<path d="M2908 2878 c-10 -7 -24 -33 -33 -57 -20 -58 -8 -75 52 -68 85 9 119
60 71 105 -30 27 -69 36 -90 20z"/>
<path d="M3470 2970 c-28 -39 -24 -84 8 -88 37 -5 52 15 52 69 0 42 -3 49 -19
49 -11 0 -29 -13 -41 -30z"/>
<path d="M4493 2923 c-18 -7 -16 -38 3 -54 41 -34 52 -100 28 -163 -10 -26 32
-19 54 9 47 59 30 170 -29 200 -29 16 -36 17 -56 8z"/>
<path d="M5950 2979 c-14 -4 -46 -10 -71 -14 -40 -5 -48 -10 -62 -40 l-17 -35
54 0 c30 0 61 -3 69 -6 11 -4 21 8 36 42 25 56 24 64 -9 53z"/>
</g>
</svg>
